<svg width="1200" height="630" viewBox="0 0 1200 630" fill="none" xmlns="http://www.w3.org/2000/svg">
<g clip-path="url(#clip0_2090_2)">
<rect width="1200" height="630" fill="white"/>
<rect width="180" height="530" transform="matrix(-1 0 0 1 1200 50)" stroke="black" stroke-opacity="0.5"/>
<rect y="50" width="180" height="530" stroke="black" stroke-opacity="0.5"/>
<rect x="180" width="840" height="50" stroke="black" stroke-opacity="0.5"/>
<rect x="180" y="580" width="840" height="50" stroke="black" stroke-opacity="0.5"/>
<path d="M499.438 291V256.091H511.643C514.075 256.091 516.08 256.511 517.66 257.352C519.239 258.182 520.415 259.301 521.188 260.71C521.961 262.108 522.347 263.659 522.347 265.364C522.347 266.864 522.08 268.102 521.546 269.08C521.023 270.057 520.33 270.83 519.467 271.398C518.614 271.966 517.688 272.386 516.688 272.659V273C517.756 273.068 518.83 273.443 519.91 274.125C520.989 274.807 521.893 275.784 522.62 277.057C523.347 278.33 523.711 279.886 523.711 281.727C523.711 283.477 523.313 285.051 522.518 286.449C521.722 287.847 520.467 288.955 518.751 289.773C517.035 290.591 514.802 291 512.052 291H499.438ZM503.665 287.25H512.052C514.813 287.25 516.773 286.716 517.933 285.648C519.103 284.568 519.688 283.261 519.688 281.727C519.688 280.545 519.387 279.455 518.785 278.455C518.183 277.443 517.325 276.636 516.211 276.034C515.097 275.42 513.779 275.114 512.256 275.114H503.665V287.25ZM503.665 271.432H511.506C512.779 271.432 513.927 271.182 514.95 270.682C515.984 270.182 516.802 269.477 517.404 268.568C518.018 267.659 518.325 266.591 518.325 265.364C518.325 263.83 517.79 262.528 516.722 261.46C515.654 260.381 513.961 259.841 511.643 259.841H503.665V271.432ZM546.612 280.295V264.818H550.634V291H546.612V286.568H546.339C545.725 287.898 544.771 289.028 543.475 289.96C542.18 290.881 540.543 291.341 538.566 291.341C536.93 291.341 535.475 290.983 534.202 290.267C532.93 289.54 531.93 288.449 531.202 286.994C530.475 285.528 530.112 283.682 530.112 281.455V264.818H534.134V281.182C534.134 283.091 534.668 284.614 535.737 285.75C536.816 286.886 538.191 287.455 539.862 287.455C540.862 287.455 541.879 287.199 542.913 286.688C543.958 286.176 544.833 285.392 545.538 284.335C546.254 283.278 546.612 281.932 546.612 280.295ZM558.002 291V264.818H562.025V291H558.002ZM560.048 260.455C559.263 260.455 558.587 260.188 558.019 259.653C557.462 259.119 557.184 258.477 557.184 257.727C557.184 256.977 557.462 256.335 558.019 255.801C558.587 255.267 559.263 255 560.048 255C560.832 255 561.502 255.267 562.059 255.801C562.627 256.335 562.911 256.977 562.911 257.727C562.911 258.477 562.627 259.119 562.059 259.653C561.502 260.188 560.832 260.455 560.048 260.455ZM573.415 256.091V291H569.393V256.091H573.415ZM592.17 264.818V268.227H578.602V264.818H592.17ZM582.556 258.545H586.579V283.5C586.579 284.636 586.744 285.489 587.073 286.057C587.414 286.614 587.846 286.989 588.369 287.182C588.903 287.364 589.465 287.455 590.056 287.455C590.499 287.455 590.863 287.432 591.147 287.386C591.431 287.33 591.658 287.284 591.829 287.25L592.647 290.864C592.374 290.966 591.994 291.068 591.505 291.17C591.016 291.284 590.397 291.341 589.647 291.341C588.511 291.341 587.397 291.097 586.306 290.608C585.227 290.119 584.329 289.375 583.613 288.375C582.908 287.375 582.556 286.114 582.556 284.591V258.545ZM617.653 291L609.675 264.818H613.903L619.562 284.864H619.835L625.425 264.818H629.721L635.244 284.795H635.516L641.175 264.818H645.403L637.425 291H633.471L627.744 270.886H627.335L621.607 291H617.653ZM650.721 291V264.818H654.744V291H650.721ZM652.766 260.455C651.982 260.455 651.306 260.188 650.738 259.653C650.181 259.119 649.903 258.477 649.903 257.727C649.903 256.977 650.181 256.335 650.738 255.801C651.306 255.267 651.982 255 652.766 255C653.55 255 654.221 255.267 654.778 255.801C655.346 256.335 655.63 256.977 655.63 257.727C655.63 258.477 655.346 259.119 654.778 259.653C654.221 260.188 653.55 260.455 652.766 260.455ZM673.498 264.818V268.227H659.93V264.818H673.498ZM663.884 258.545H667.907V283.5C667.907 284.636 668.072 285.489 668.401 286.057C668.742 286.614 669.174 286.989 669.697 287.182C670.231 287.364 670.793 287.455 671.384 287.455C671.827 287.455 672.191 287.432 672.475 287.386C672.759 287.33 672.987 287.284 673.157 287.25L673.975 290.864C673.702 290.966 673.322 291.068 672.833 291.17C672.344 291.284 671.725 291.341 670.975 291.341C669.839 291.341 668.725 291.097 667.634 290.608C666.555 290.119 665.657 289.375 664.941 288.375C664.237 287.375 663.884 286.114 663.884 284.591V258.545ZM684.134 275.25V291H680.112V256.091H684.134V268.909H684.475C685.089 267.557 686.009 266.483 687.237 265.688C688.475 264.881 690.123 264.477 692.18 264.477C693.964 264.477 695.526 264.835 696.867 265.551C698.208 266.256 699.248 267.341 699.987 268.807C700.737 270.261 701.112 272.114 701.112 274.364V291H697.089V274.636C697.089 272.557 696.549 270.949 695.469 269.812C694.401 268.665 692.918 268.091 691.021 268.091C689.702 268.091 688.521 268.369 687.475 268.926C686.441 269.483 685.623 270.295 685.021 271.364C684.43 272.432 684.134 273.727 684.134 275.25Z" fill="black" fill-opacity="0.5"/>
<path d="M544.936 365V310.455H553.033V318.693H553.601C554.595 315.994 556.394 313.804 558.999 312.124C561.603 310.443 564.538 309.602 567.805 309.602C568.421 309.602 569.19 309.614 570.114 309.638C571.037 309.661 571.735 309.697 572.209 309.744V318.267C571.925 318.196 571.274 318.089 570.256 317.947C569.261 317.782 568.208 317.699 567.095 317.699C564.444 317.699 562.076 318.255 559.993 319.368C557.933 320.457 556.3 321.972 555.092 323.913C553.909 325.831 553.317 328.021 553.317 330.483V365H544.936ZM603.352 366.136C598.097 366.136 593.563 364.976 589.751 362.656C585.964 360.312 583.04 357.045 580.98 352.855C578.944 348.641 577.926 343.741 577.926 338.153C577.926 332.566 578.944 327.642 580.98 323.381C583.04 319.096 585.904 315.758 589.574 313.366C593.267 310.952 597.576 309.744 602.5 309.744C605.341 309.744 608.146 310.218 610.916 311.165C613.686 312.112 616.207 313.651 618.48 315.781C620.753 317.888 622.564 320.682 623.913 324.162C625.263 327.642 625.938 331.927 625.938 337.017V340.568H583.892V333.324H617.415C617.415 330.246 616.799 327.5 615.568 325.085C614.361 322.67 612.633 320.765 610.384 319.368C608.158 317.971 605.53 317.273 602.5 317.273C599.162 317.273 596.274 318.101 593.835 319.759C591.42 321.392 589.562 323.523 588.26 326.151C586.958 328.778 586.307 331.596 586.307 334.602V339.432C586.307 343.551 587.017 347.043 588.438 349.908C589.882 352.749 591.882 354.915 594.439 356.406C596.996 357.874 599.967 358.608 603.352 358.608C605.554 358.608 607.543 358.3 609.318 357.685C611.117 357.045 612.668 356.098 613.97 354.844C615.272 353.565 616.278 351.979 616.989 350.085L625.085 352.358C624.233 355.104 622.801 357.519 620.788 359.602C618.776 361.662 616.29 363.272 613.331 364.432C610.372 365.568 607.045 366.136 603.352 366.136ZM681.628 310.455L661.458 365H652.935L632.765 310.455H641.855L656.912 353.92H657.48L672.537 310.455H681.628ZM712.896 366.136C707.972 366.136 703.651 364.964 699.934 362.621C696.241 360.277 693.353 356.998 691.27 352.784C689.21 348.57 688.18 343.646 688.18 338.011C688.18 332.33 689.21 327.37 691.27 323.132C693.353 318.894 696.241 315.604 699.934 313.26C703.651 310.916 707.972 309.744 712.896 309.744C717.82 309.744 722.129 310.916 725.822 313.26C729.539 315.604 732.427 318.894 734.487 323.132C736.57 327.37 737.612 332.33 737.612 338.011C737.612 343.646 736.57 348.57 734.487 352.784C732.427 356.998 729.539 360.277 725.822 362.621C722.129 364.964 717.82 366.136 712.896 366.136ZM712.896 358.608C716.636 358.608 719.714 357.649 722.129 355.732C724.544 353.814 726.331 351.293 727.491 348.168C728.651 345.043 729.231 341.657 729.231 338.011C729.231 334.366 728.651 330.968 727.491 327.82C726.331 324.671 724.544 322.126 722.129 320.185C719.714 318.243 716.636 317.273 712.896 317.273C709.155 317.273 706.078 318.243 703.663 320.185C701.248 322.126 699.461 324.671 698.301 327.82C697.141 330.968 696.561 334.366 696.561 338.011C696.561 341.657 697.141 345.043 698.301 348.168C699.461 351.293 701.248 353.814 703.663 355.732C706.078 357.649 709.155 358.608 712.896 358.608Z" fill="black"/>
<circle cx="497" cy="336" r="37" stroke="black" stroke-width="6"/>
<path d="M497.32 359.36L520.52 336.16M520.52 336.16H503.24M520.52 336.16V353.44" stroke="black" stroke-width="6"/>
</g>
<defs>
<clipPath id="clip0_2090_2">
<rect width="1200" height="630" fill="white"/>
</clipPath>
</defs>
</svg>
